

General
Complete name                : WWE Superstars.2011.11.10.720p.HDTV.x264.MM. Snaw90.mp4
Format                           : MP4
File size                        : 789 MiB
Duration                         : 35mn 18s



Video

Format                           : AVC
Bit rate                         : 2 970 Kbps
Width                            : 1280 pixels
Height                           : 720 pixels
Display aspect ratio             : 16:9
Frame rate                       : 29.970 fps
Stream size                      : 750 MiB 


Audio

Format                           : AAC
Duration                         : 35mn 18s
Bit rate                         : 152 Kbps
Maximum bit rate                 : 219 Kbps
Channel(s)                       : 2 channels
Sampling rate                    : 44.1 KHz
Stream size                      : 38.3 MiB (5%)
